<svg width="24" height="22" viewBox="0 0 24 22" fill="none" xmlns="http://www.w3.org/2000/svg">
<path d="M23.9899 20.0403L22.4453 5.94854C22.3998 5.51745 22.199 5.11889 21.8817 4.83008C21.5644 4.54127 21.1532 4.38275 20.7278 4.38524H17.1092C16.9013 3.1578 16.2746 2.04469 15.3398 1.24234C14.405 0.439998 13.2221 0 12 0C10.7779 0 9.59503 0.439998 8.66022 1.24234C7.72542 2.04469 7.09873 3.1578 6.89078 4.38524H3.2722C2.8468 4.38275 2.43563 4.54127 2.11833 4.83008C1.80104 5.11889 1.6002 5.51745 1.55472 5.94854L0.0100746 20.0403C-0.0160867 20.2878 0.00884007 20.538 0.0832522 20.775C0.157664 21.012 0.279915 21.2305 0.442144 21.4165C0.603832 21.6007 0.801973 21.748 1.02353 21.8486C1.24508 21.9491 1.48502 22.0007 1.72755 22H22.2724C22.515 22.0007 22.7549 21.9491 22.9765 21.8486C23.198 21.748 23.3962 21.6007 23.5579 21.4165C23.7201 21.2305 23.8423 21.012 23.9167 20.775C23.9912 20.538 24.0161 20.2878 23.9899 20.0403ZM12 1.74302C12.7661 1.74451 13.5102 2.00457 14.116 2.48259C14.7218 2.96061 15.1552 3.62965 15.3485 4.38524H8.65146C8.84478 3.62965 9.27819 2.96061 9.88399 2.48259C10.4898 2.00457 11.2339 1.74451 12 1.74302ZM1.72755 20.2385L3.2722 6.14671H6.81517V8.78892C6.81517 9.02251 6.90621 9.24653 7.06827 9.4117C7.23033 9.57687 7.45012 9.66966 7.67931 9.66966C7.90849 9.66966 8.12829 9.57687 8.29034 9.4117C8.4524 9.24653 8.54345 9.02251 8.54345 8.78892V6.14671H15.4566V8.78892C15.4566 9.02251 15.5476 9.24653 15.7097 9.4117C15.8717 9.57687 16.0915 9.66966 16.3207 9.66966C16.5499 9.66966 16.7697 9.57687 16.9317 9.4117C17.0938 9.24653 17.1848 9.02251 17.1848 8.78892V6.14671H20.7278L22.2724 20.2385H1.72755Z" fill="#8D91A3"/>
</svg>
