<svg width="26" height="24" viewBox="0 0 26 24" fill="none" xmlns="http://www.w3.org/2000/svg">
<path d="M6.33333 6.26304H19.6667H6.33333ZM6.33333 10.2103H19.6667H6.33333ZM6.33333 14.1576H11.6667H6.33333ZM16.7707 19.4206H22.3333C23.0406 19.4206 23.7189 19.1434 24.219 18.6499C24.719 18.1564 25 17.487 25 16.7891V3.63152C25 2.9336 24.719 2.26426 24.219 1.77075C23.7189 1.27725 23.0406 1 22.3333 1H3.66667C2.95942 1 2.28115 1.27725 1.78105 1.77075C1.28095 2.26426 1 2.9336 1 3.63152V16.7891C1 17.487 1.28095 18.1564 1.78105 18.6499C2.28115 19.1434 2.95942 19.4206 3.66667 19.4206H7.91733C9.25067 19.4206 10.3333 20.4877 10.3333 21.8048C10.3333 22.8679 11.6347 23.3995 12.396 22.6482L14.8853 20.1917C15.3853 19.6981 16.0635 19.4208 16.7707 19.4206V19.4206Z" stroke="white" stroke-width="2" stroke-linecap="round" stroke-linejoin="round"/>
</svg>
