<svg width="22" height="24" viewBox="0 0 22 24" fill="none" xmlns="http://www.w3.org/2000/svg">
<path d="M11 14.4459C14.3333 19.2865 21 19.2542 21 13.9081C21 9.6054 16.5556 6.37837 11 1C5.44444 6.37837 1 9.6054 1 13.9081C1 19.2542 7.66667 19.2865 11 14.4459Z" stroke="#8D91A3" stroke-width="2" stroke-linecap="round" stroke-linejoin="round"/>
<path d="M10.4112 15.3736L7.07821 21.9663C7.02411 22.0735 6.99724 22.1936 7.00022 22.315C7.0032 22.4364 7.03593 22.5549 7.09522 22.659C7.15451 22.7631 7.23834 22.8492 7.33855 22.909C7.43876 22.9687 7.55193 23.0001 7.66704 23H14.333C14.4481 23.0001 14.5612 22.9687 14.6615 22.909C14.7617 22.8492 14.8455 22.7631 14.9048 22.659C14.9641 22.5549 14.9968 22.4364 14.9998 22.315C15.0028 22.1936 14.9759 22.0735 14.9218 21.9663L11.5888 15.3736C11.5321 15.2608 11.4473 15.1664 11.3436 15.1006C11.2398 15.0348 11.1211 15 11 15C10.8789 15 10.7602 15.0348 10.6564 15.1006C10.5527 15.1664 10.4679 15.2608 10.4112 15.3736V15.3736Z" stroke="#8D91A3" stroke-width="2" stroke-linecap="round"/>
</svg>
