<svg width="20" height="21" viewBox="0 0 20 21" fill="none" xmlns="http://www.w3.org/2000/svg">
<path d="M19.4607 9.57081C19.685 9.39576 19.8513 9.15157 19.9364 8.87247C20.0216 8.59337 20.0212 8.29335 19.9353 8.01449C19.8495 7.73563 19.6825 7.49191 19.4578 7.31749C19.2332 7.14308 18.962 7.04673 18.6824 7.04195L13.2521 6.82699C13.2254 6.82506 13.1998 6.81508 13.1784 6.79826C13.157 6.78143 13.1407 6.75848 13.1315 6.73216L11.255 1.42155C11.1607 1.15137 10.9895 0.918065 10.7645 0.753232C10.5395 0.5884 10.2715 0.5 9.99698 0.5C9.72243 0.5 9.45451 0.5884 9.2295 0.753232C9.00449 0.918065 8.83325 1.15137 8.73897 1.42155L6.86854 6.75113C6.8593 6.77744 6.84299 6.8004 6.82157 6.81722C6.80016 6.83405 6.77457 6.84403 6.74787 6.84596L1.31759 7.06091C1.038 7.0657 0.766843 7.16205 0.542147 7.33646C0.317451 7.51087 0.150483 7.7546 0.0646547 8.03346C-0.0211739 8.31232 -0.0215589 8.61233 0.0635534 8.89144C0.148666 9.17054 0.315008 9.41473 0.539255 9.58977L4.799 13.0986C4.82032 13.1161 4.83626 13.1399 4.84484 13.1669C4.85341 13.1938 4.85426 13.2228 4.84727 13.2503L3.3811 18.6937C3.30512 18.9709 3.31248 19.2659 3.40218 19.5385C3.49188 19.8112 3.65955 20.0482 3.8824 20.2175C4.10525 20.3867 4.37245 20.48 4.64765 20.4845C4.92285 20.489 5.19269 20.4045 5.42047 20.2426L9.92156 17.0815C9.94373 17.0655 9.97004 17.0569 9.99698 17.0569C10.0239 17.0569 10.0502 17.0655 10.0724 17.0815L14.5735 20.2426C14.7982 20.41 15.0671 20.5 15.3428 20.5C15.6185 20.5 15.8874 20.41 16.1121 20.2426C16.335 20.0749 16.5028 19.839 16.5925 19.5673C16.6822 19.2956 16.6893 19.0014 16.6129 18.7253L15.1346 13.2629C15.1268 13.2355 15.1272 13.2062 15.1359 13.1791C15.1445 13.1519 15.1609 13.1282 15.1829 13.1112L19.4607 9.57081Z" fill="#FFDD3F"/>
</svg>
